# xmcd
#
# Track frame offsets:
# 150
# 16347
# 34270
# 54460
# 68107
# 89565
# 105763
# 122445
# 142438
# 159164
# 175128
# 189807
# 207074
#
# Disc length: 3027 seconds
#
#
# Revision: 0
# Processed by: cddbd v1.5.2PL0 Copyright (c) Steve Scherf et al.
# Submitted via: FreeRIP 2.96 
#
DISCID=a40bd10d
DTITLE=Koscova Katka - Naboso
DYEAR=2006
DGENRE=Pop
TTITLE0=Posledna
TTITLE1=Dnes
TTITLE2=Papierova lod
TTITLE3=Basnik
TTITLE4=Nedovolas sa
TTITLE5=V odrazoch
TTITLE6=Napad
TTITLE7=Kamienok
TTITLE8=Call you my friend
TTITLE9=Len ty
TTITLE10=V trave
TTITLE11=Dymova
TTITLE12=Prievan
EXTD=
EXTT0=
EXTT1=
EXTT2=
EXTT3=
EXTT4=
EXTT5=
EXTT6=
EXTT7=
EXTT8=
EXTT9=
EXTT10=
EXTT11=
EXTT12=
PLAYORDER=
